<?xml version="1.0" standalone="no"?>
<!DOCTYPE svg PUBLIC "-//W3C//DTD SVG 20010904//EN"
 "http://www.w3.org/TR/2001/REC-SVG-20010904/DTD/svg10.dtd">
<svg version="1.0" xmlns="http://www.w3.org/2000/svg"
 width="486.000000pt" height="513.000000pt" viewBox="0 0 486.000000 513.000000"
 preserveAspectRatio="xMidYMid meet">

<g transform="translate(0.000000,513.000000) scale(0.100000,-0.100000)"
fill="#000000" stroke="none">
<path d="M1889 4821 c-45 -9 -155 -86 -204 -143 -75 -88 -211 -325 -241 -420
-16 -53 -16 -58 0 -82 11 -18 25 -26 44 -26 36 0 44 7 68 55 37 76 105 195
143 252 21 32 45 72 54 88 20 39 123 138 165 159 30 16 35 15 80 -4 32 -14 72
-47 124 -103 90 -96 177 -203 188 -232 5 -11 14 -34 20 -52 16 -44 55 -55 171
-49 107 6 186 -9 263 -49 28 -15 74 -31 101 -36 126 -23 118 -24 176 17 30 21
81 57 114 80 64 45 308 162 364 175 22 5 59 2 103 -8 81 -18 104 -40 156 -153
53 -116 70 -173 87 -291 26 -191 41 -229 90 -229 30 0 66 30 67 55 2 42 -23
210 -44 288 -31 121 -99 270 -151 330 -42 49 -52 55 -144 85 -119 39 -162 40
-259 6 -110 -38 -325 -155 -409 -224 -41 -33 -79 -60 -84 -60 -5 0 -31 17 -58
37 -78 60 -222 92 -415 93 -5 0 -8 6 -8 13 0 24 -96 155 -175 239 -86 92 -189
159 -280 184 -54 15 -53 15 -106 5z"/>
<path d="M1280 4032 c-335 -177 -533 -399 -660 -735 -44 -119 -67 -229 -79
-389 -13 -164 19 -362 79 -494 12 -27 33 -76 45 -110 26 -69 61 -128 109 -182
74 -85 89 -122 48 -122 -25 0 -118 -56 -136 -82 -20 -28 -21 -90 -2 -126 18
-34 103 -115 142 -134 40 -20 167 -41 203 -33 16 3 37 15 47 26 17 19 17 20
-2 39 -13 13 -43 22 -95 28 -67 9 -84 15 -132 50 -33 25 -56 50 -59 65 -12 64
38 100 129 91 32 -3 64 -1 71 4 7 5 14 31 16 59 l4 51 -80 83 c-67 71 -88 102
-138 204 -108 221 -146 386 -129 563 14 155 36 271 65 348 35 94 83 195 103
219 10 11 37 53 60 93 40 69 166 208 210 231 16 9 31 3 88 -36 45 -31 92 -53
138 -65 39 -10 87 -25 108 -33 63 -25 177 -53 267 -65 112 -15 266 6 440 61
69 21 132 39 140 39 8 0 54 25 102 56 103 65 87 69 215 -50 73 -69 97 -83 225
-142 79 -36 152 -71 163 -78 11 -7 36 -17 55 -21 19 -4 71 -20 116 -35 45 -15
108 -31 140 -35 32 -4 88 -14 124 -23 44 -11 113 -16 215 -16 131 0 158 2 214
22 34 13 76 32 92 44 16 12 30 20 32 17 2 -2 19 -24 39 -49 48 -60 153 -284
181 -385 18 -69 21 -106 22 -270 0 -208 6 -175 -81 -450 -34 -109 -108 -275
-122 -275 -4 0 -20 31 -36 70 -37 91 -98 150 -155 150 -75 0 -100 -11 -161
-71 -86 -86 -125 -203 -82 -242 37 -34 92 -8 92 44 0 49 100 182 134 177 21
-3 49 -48 65 -106 10 -32 -32 -179 -63 -223 -9 -13 -16 -31 -16 -41 0 -10 -4
-18 -10 -18 -5 0 -19 -9 -31 -21 -29 -29 -10 -49 46 -49 77 0 123 28 210 131
182 214 215 277 312 598 67 221 69 367 12 661 -13 66 -114 279 -159 335 -95
119 -196 210 -241 218 -47 9 -57 -1 -61 -58 -3 -46 -6 -51 -39 -68 -50 -24
-232 -39 -329 -27 -203 25 -358 71 -570 169 -157 73 -156 72 -316 219 -22 21
-44 51 -48 67 -12 46 -34 65 -78 65 -29 0 -45 -6 -58 -22 -69 -84 -87 -101
-126 -124 -66 -39 -252 -101 -340 -114 -43 -6 -100 -16 -126 -22 -56 -12 -163
2 -243 32 -27 10 -75 25 -105 33 -30 8 -73 20 -95 26 -43 11 -167 82 -172 98
-2 5 37 32 88 59 106 58 114 65 99 93 -14 27 -82 28 -130 3z"/>
<path d="M1823 3494 c-23 -10 -15 -43 12 -50 42 -10 77 3 73 29 -2 17 -10 22
-38 24 -19 1 -41 0 -47 -3z"/>
<path d="M2801 3363 c-17 -32 8 -55 65 -60 40 -4 52 -1 67 15 18 20 18 21 -5
36 -14 9 -45 19 -70 22 -39 6 -48 4 -57 -13z"/>
<path d="M1730 3161 c-68 -21 -139 -80 -159 -133 -5 -15 -13 -60 -16 -100 -5
-67 -4 -77 22 -123 31 -55 67 -80 145 -101 80 -21 141 -18 196 10 63 32 80 52
97 118 36 140 30 184 -33 250 -48 50 -62 58 -141 74 -73 15 -75 16 -111 5z
m159 -135 l23 -25 -48 -55 c-51 -59 -67 -66 -96 -39 -30 27 -23 71 18 109 42
40 72 43 103 10z m-54 -236 c-3 -5 -19 -10 -35 -10 -16 0 -32 5 -35 10 -4 6
10 10 35 10 25 0 39 -4 35 -10z"/>
<path d="M2868 3023 c-33 -7 -71 -19 -84 -28 -63 -41 -111 -128 -101 -182 7
-41 51 -140 73 -164 48 -54 198 -84 270 -54 71 29 164 140 164 194 0 80 -51
178 -115 222 -30 20 -137 26 -207 12z m147 -94 c43 -38 44 -60 4 -93 -40 -34
-74 -33 -110 3 -45 46 -34 92 26 110 43 13 41 14 80 -20z m-66 -225 c23 -4 41
-10 41 -14 0 -26 -113 -13 -134 16 -20 27 -9 36 24 19 15 -8 46 -17 69 -21z"/>
<path d="M1048 2813 c-8 -10 -28 -37 -42 -61 -33 -53 -31 -91 6 -111 24 -14
28 -14 46 3 11 9 23 30 27 44 3 15 18 44 33 65 20 30 23 42 15 55 -15 24 -65
27 -85 5z"/>
<path d="M1201 2764 c-27 -20 -60 -88 -61 -126 0 -36 40 -64 68 -49 11 6 25
25 31 43 7 18 19 46 27 61 19 39 18 53 -8 71 -28 20 -28 20 -57 0z"/>
<path d="M1348 2718 c-21 -18 -41 -124 -28 -149 27 -50 89 -3 110 84 12 51 12
60 -1 68 -20 13 -63 11 -81 -3z"/>
<path d="M2311 2567 c-6 -8 -14 -31 -19 -52 -4 -21 -15 -43 -25 -49 -15 -9
-24 -4 -57 32 -42 45 -77 54 -104 26 -29 -28 -15 -59 54 -124 41 -40 48 -53
59 -109 10 -51 20 -72 46 -98 31 -31 38 -33 98 -33 83 0 100 13 138 110 21 51
45 90 75 121 58 59 59 92 2 97 -30 3 -43 -3 -69 -27 -18 -17 -35 -31 -39 -31
-17 0 -48 49 -53 83 -3 22 -11 45 -18 53 -15 18 -73 18 -88 1z m79 -199 c36
-26 36 -32 10 -86 -21 -44 -39 -52 -60 -27 -16 19 -31 100 -24 120 9 21 40 19
74 -7z"/>
<path d="M3212 2545 c-34 -29 -66 -90 -58 -111 3 -8 17 -19 31 -24 36 -14 62
2 86 53 10 23 24 50 31 60 11 15 10 20 -6 33 -28 20 -50 17 -84 -11z"/>
<path d="M3387 2553 c-20 -23 -57 -109 -57 -134 0 -10 11 -26 25 -35 23 -15
27 -15 50 0 14 9 25 21 25 27 0 7 12 38 27 71 26 59 26 61 8 74 -26 19 -59 18
-78 -3z"/>
<path d="M3552 2524 c-20 -14 -23 -23 -20 -77 3 -66 12 -76 63 -63 43 11 63
126 26 146 -27 14 -43 13 -69 -6z"/>
<path d="M2298 2039 c-24 -13 -23 -34 2 -59 39 -39 160 -19 144 24 -11 28
-116 53 -146 35z"/>
<path d="M1120 1545 c-10 -12 -9 -37 4 -128 9 -61 23 -135 31 -162 22 -79 90
-212 155 -304 56 -79 59 -86 45 -105 -67 -92 -70 -98 -70 -162 0 -56 3 -66 29
-93 16 -17 60 -42 99 -57 129 -50 208 -45 312 18 l68 40 121 -42 c164 -57 207
-67 362 -80 116 -11 146 -10 225 5 50 9 92 15 94 13 2 -2 32 -59 67 -127 35
-68 75 -133 89 -143 57 -43 210 -8 256 58 35 50 65 145 59 185 -8 48 12 70 87
97 75 28 161 87 274 189 50 46 95 83 98 83 4 0 37 -14 74 -32 56 -27 80 -33
158 -36 l92 -4 116 56 c63 31 119 56 124 56 5 0 39 32 75 71 94 102 98 139 23
237 -86 113 -197 123 -347 32 -38 -23 -77 -40 -87 -38 -24 5 -20 50 12 159 32
105 32 149 2 177 -23 22 -60 28 -91 16 -18 -7 -21 -36 -5 -65 8 -16 5 -39 -16
-102 -44 -137 -104 -257 -199 -398 -41 -60 -222 -231 -302 -284 -52 -34 -68
-40 -133 -45 -90 -6 -104 -20 -78 -75 25 -53 22 -127 -9 -189 -33 -66 -52 -86
-80 -86 -28 0 -39 16 -95 140 -48 107 -66 129 -127 155 -39 17 -49 17 -110 5
-86 -18 -216 -16 -312 4 -95 20 -371 109 -404 131 -35 24 -70 13 -96 -30 -32
-51 -83 -87 -133 -92 -32 -4 -57 2 -109 26 -61 28 -68 34 -68 60 0 45 56 111
128 150 40 23 65 43 68 57 10 37 -4 47 -58 42 -60 -6 -85 11 -150 105 -119
171 -149 247 -164 413 -4 43 -11 87 -16 97 -11 22 -70 23 -88 2z m2956 -401
c47 -49 45 -77 -13 -143 -38 -44 -66 -63 -152 -104 l-105 -50 -80 6 c-104 8
-146 17 -146 31 0 7 21 45 48 87 26 41 52 83 58 94 9 16 25 21 80 25 49 4 85
14 124 34 60 31 117 54 139 55 7 1 29 -15 47 -35z"/>
</g>
</svg>
